<svg width="398" height="496" viewBox="0 0 398 496" fill="none" xmlns="http://www.w3.org/2000/svg">
<g filter="url(#filter0_d_6:471)">
<rect x="20" y="20" width="172" height="60" rx="10" fill="#58297D"/>
</g>
<path fill-rule="evenodd" clip-rule="evenodd" d="M38.7126 80L56.43 58.6727L98.6928 31.9999L123.588 20H30C24.4772 20 20 24.4772 20 30V70C20 75.5228 24.4772 80 30 80H38.7126Z" fill="url(#paint0_linear_6:471)"/>
<path d="M74.8729 60.26C73.5035 60.26 72.4549 59.87 71.7269 59.09C71.0162 58.31 70.6609 57.2093 70.6609 55.788V46.012C70.6609 44.5907 71.0162 43.49 71.7269 42.71C72.4549 41.93 73.5035 41.54 74.8729 41.54C76.2422 41.54 77.2822 41.93 77.9929 42.71C78.7209 43.49 79.0849 44.5907 79.0849 46.012V47.936H76.3809V45.83C76.3809 44.7033 75.9042 44.14 74.9509 44.14C73.9975 44.14 73.5209 44.7033 73.5209 45.83V55.996C73.5209 57.1053 73.9975 57.66 74.9509 57.66C75.9042 57.66 76.3809 57.1053 76.3809 55.996V53.214H79.0849V55.788C79.0849 57.2093 78.7209 58.31 77.9929 59.09C77.2822 59.87 76.2422 60.26 74.8729 60.26ZM84.9808 60.26C83.5768 60.26 82.5021 59.8613 81.7568 59.064C81.0114 58.2667 80.6388 57.14 80.6388 55.684V46.116C80.6388 44.66 81.0114 43.5333 81.7568 42.736C82.5021 41.9387 83.5768 41.54 84.9808 41.54C86.3848 41.54 87.4594 41.9387 88.2048 42.736C88.9501 43.5333 89.3228 44.66 89.3228 46.116V55.684C89.3228 57.14 88.9501 58.2667 88.2048 59.064C87.4594 59.8613 86.3848 60.26 84.9808 60.26ZM84.9808 57.66C85.9688 57.66 86.4628 57.062 86.4628 55.866V45.934C86.4628 44.738 85.9688 44.14 84.9808 44.14C83.9928 44.14 83.4988 44.738 83.4988 45.934V55.866C83.4988 57.062 83.9928 57.66 84.9808 57.66ZM91.2569 41.8H94.8449L97.6269 52.694H97.6789V41.8H100.227V60H97.2889L93.8569 46.714H93.8049V60H91.2569V41.8ZM102.353 41.8H105.941L108.723 52.694H108.775V41.8H111.323V60H108.385L104.953 46.714H104.901V60H102.353V41.8ZM113.448 41.8H121.248V44.4H116.308V49.21H120.234V51.81H116.308V57.4H121.248V60H113.448V41.8ZM126.924 60.26C125.554 60.26 124.506 59.87 123.778 59.09C123.067 58.31 122.712 57.2093 122.712 55.788V46.012C122.712 44.5907 123.067 43.49 123.778 42.71C124.506 41.93 125.554 41.54 126.924 41.54C128.293 41.54 129.333 41.93 130.044 42.71C130.772 43.49 131.136 44.5907 131.136 46.012V47.936H128.432V45.83C128.432 44.7033 127.955 44.14 127.002 44.14C126.048 44.14 125.572 44.7033 125.572 45.83V55.996C125.572 57.1053 126.048 57.66 127.002 57.66C127.955 57.66 128.432 57.1053 128.432 55.996V53.214H131.136V55.788C131.136 57.2093 130.772 58.31 130.044 59.09C129.333 59.87 128.293 60.26 126.924 60.26ZM135.083 44.4H132.093V41.8H140.933V44.4H137.943V60H135.083V44.4Z" fill="white"/>
<g filter="url(#filter1_d_6:471)">
<rect x="20" y="100" width="172" height="60" rx="10" fill="#0D85B7"/>
</g>
<path fill-rule="evenodd" clip-rule="evenodd" d="M38.7127 160L56.43 138.673L98.6928 112L123.588 100H30C24.4772 100 20 104.477 20 110V150C20 155.523 24.4772 160 30 160H38.7127Z" fill="url(#paint1_linear_6:471)"/>
<path d="M74.8729 141.26C73.5035 141.26 72.4549 140.87 71.7269 140.09C71.0162 139.31 70.6609 138.209 70.6609 136.788V127.012C70.6609 125.591 71.0162 124.49 71.7269 123.71C72.4549 122.93 73.5035 122.54 74.8729 122.54C76.2422 122.54 77.2822 122.93 77.9929 123.71C78.7209 124.49 79.0849 125.591 79.0849 127.012V128.936H76.3809V126.83C76.3809 125.703 75.9042 125.14 74.9509 125.14C73.9975 125.14 73.5209 125.703 73.5209 126.83V136.996C73.5209 138.105 73.9975 138.66 74.9509 138.66C75.9042 138.66 76.3809 138.105 76.3809 136.996V134.214H79.0849V136.788C79.0849 138.209 78.7209 139.31 77.9929 140.09C77.2822 140.87 76.2422 141.26 74.8729 141.26ZM84.9808 141.26C83.5768 141.26 82.5021 140.861 81.7568 140.064C81.0114 139.267 80.6388 138.14 80.6388 136.684V127.116C80.6388 125.66 81.0114 124.533 81.7568 123.736C82.5021 122.939 83.5768 122.54 84.9808 122.54C86.3848 122.54 87.4594 122.939 88.2048 123.736C88.9501 124.533 89.3228 125.66 89.3228 127.116V136.684C89.3228 138.14 88.9501 139.267 88.2048 140.064C87.4594 140.861 86.3848 141.26 84.9808 141.26ZM84.9808 138.66C85.9688 138.66 86.4628 138.062 86.4628 136.866V126.934C86.4628 125.738 85.9688 125.14 84.9808 125.14C83.9928 125.14 83.4988 125.738 83.4988 126.934V136.866C83.4988 138.062 83.9928 138.66 84.9808 138.66ZM91.2569 122.8H94.8449L97.6269 133.694H97.6789V122.8H100.227V141H97.2889L93.8569 127.714H93.8049V141H91.2569V122.8ZM102.353 122.8H105.941L108.723 133.694H108.775V122.8H111.323V141H108.385L104.953 127.714H104.901V141H102.353V122.8ZM113.448 122.8H121.248V125.4H116.308V130.21H120.234V132.81H116.308V138.4H121.248V141H113.448V122.8ZM126.924 141.26C125.554 141.26 124.506 140.87 123.778 140.09C123.067 139.31 122.712 138.209 122.712 136.788V127.012C122.712 125.591 123.067 124.49 123.778 123.71C124.506 122.93 125.554 122.54 126.924 122.54C128.293 122.54 129.333 122.93 130.044 123.71C130.772 124.49 131.136 125.591 131.136 127.012V128.936H128.432V126.83C128.432 125.703 127.955 125.14 127.002 125.14C126.048 125.14 125.572 125.703 125.572 126.83V136.996C125.572 138.105 126.048 138.66 127.002 138.66C127.955 138.66 128.432 138.105 128.432 136.996V134.214H131.136V136.788C131.136 138.209 130.772 139.31 130.044 140.09C129.333 140.87 128.293 141.26 126.924 141.26ZM135.083 125.4H132.093V122.8H140.933V125.4H137.943V141H135.083V125.4Z" fill="white"/>
<g filter="url(#filter2_d_6:471)">
<rect x="20" y="180" width="172" height="60" rx="10" fill="#FFA800"/>
</g>
<path fill-rule="evenodd" clip-rule="evenodd" d="M38.7127 240L56.43 218.673L98.6928 192L123.588 180H30C24.4772 180 20 184.477 20 190V230C20 235.523 24.4772 240 30 240H38.7127Z" fill="url(#paint2_linear_6:471)"/>
<path d="M74.8729 220.26C73.5035 220.26 72.4549 219.87 71.7269 219.09C71.0162 218.31 70.6609 217.209 70.6609 215.788V206.012C70.6609 204.591 71.0162 203.49 71.7269 202.71C72.4549 201.93 73.5035 201.54 74.8729 201.54C76.2422 201.54 77.2822 201.93 77.9929 202.71C78.7209 203.49 79.0849 204.591 79.0849 206.012V207.936H76.3809V205.83C76.3809 204.703 75.9042 204.14 74.9509 204.14C73.9975 204.14 73.5209 204.703 73.5209 205.83V215.996C73.5209 217.105 73.9975 217.66 74.9509 217.66C75.9042 217.66 76.3809 217.105 76.3809 215.996V213.214H79.0849V215.788C79.0849 217.209 78.7209 218.31 77.9929 219.09C77.2822 219.87 76.2422 220.26 74.8729 220.26ZM84.9808 220.26C83.5768 220.26 82.5021 219.861 81.7568 219.064C81.0114 218.267 80.6388 217.14 80.6388 215.684V206.116C80.6388 204.66 81.0114 203.533 81.7568 202.736C82.5021 201.939 83.5768 201.54 84.9808 201.54C86.3848 201.54 87.4594 201.939 88.2048 202.736C88.9501 203.533 89.3228 204.66 89.3228 206.116V215.684C89.3228 217.14 88.9501 218.267 88.2048 219.064C87.4594 219.861 86.3848 220.26 84.9808 220.26ZM84.9808 217.66C85.9688 217.66 86.4628 217.062 86.4628 215.866V205.934C86.4628 204.738 85.9688 204.14 84.9808 204.14C83.9928 204.14 83.4988 204.738 83.4988 205.934V215.866C83.4988 217.062 83.9928 217.66 84.9808 217.66ZM91.2569 201.8H94.8449L97.6269 212.694H97.6789V201.8H100.227V220H97.2889L93.8569 206.714H93.8049V220H91.2569V201.8ZM102.353 201.8H105.941L108.723 212.694H108.775V201.8H111.323V220H108.385L104.953 206.714H104.901V220H102.353V201.8ZM113.448 201.8H121.248V204.4H116.308V209.21H120.234V211.81H116.308V217.4H121.248V220H113.448V201.8ZM126.924 220.26C125.554 220.26 124.506 219.87 123.778 219.09C123.067 218.31 122.712 217.209 122.712 215.788V206.012C122.712 204.591 123.067 203.49 123.778 202.71C124.506 201.93 125.554 201.54 126.924 201.54C128.293 201.54 129.333 201.93 130.044 202.71C130.772 203.49 131.136 204.591 131.136 206.012V207.936H128.432V205.83C128.432 204.703 127.955 204.14 127.002 204.14C126.048 204.14 125.572 204.703 125.572 205.83V215.996C125.572 217.105 126.048 217.66 127.002 217.66C127.955 217.66 128.432 217.105 128.432 215.996V213.214H131.136V215.788C131.136 217.209 130.772 218.31 130.044 219.09C129.333 219.87 128.293 220.26 126.924 220.26ZM135.083 204.4H132.093V201.8H140.933V204.4H137.943V220H135.083V204.4Z" fill="white"/>
<g filter="url(#filter3_d_6:471)">
<rect x="20" y="260" width="172" height="60" rx="10" fill="#3AB146"/>
</g>
<path fill-rule="evenodd" clip-rule="evenodd" d="M38.7127 320L56.43 298.673L98.6928 272L123.588 260H30C24.4772 260 20 264.477 20 270V310C20 315.523 24.4772 320 30 320H38.7127Z" fill="url(#paint3_linear_6:471)"/>
<path d="M74.8729 300.26C73.5035 300.26 72.4549 299.87 71.7269 299.09C71.0162 298.31 70.6609 297.209 70.6609 295.788V286.012C70.6609 284.591 71.0162 283.49 71.7269 282.71C72.4549 281.93 73.5035 281.54 74.8729 281.54C76.2422 281.54 77.2822 281.93 77.9929 282.71C78.7209 283.49 79.0849 284.591 79.0849 286.012V287.936H76.3809V285.83C76.3809 284.703 75.9042 284.14 74.9509 284.14C73.9975 284.14 73.5209 284.703 73.5209 285.83V295.996C73.5209 297.105 73.9975 297.66 74.9509 297.66C75.9042 297.66 76.3809 297.105 76.3809 295.996V293.214H79.0849V295.788C79.0849 297.209 78.7209 298.31 77.9929 299.09C77.2822 299.87 76.2422 300.26 74.8729 300.26ZM84.9808 300.26C83.5768 300.26 82.5021 299.861 81.7568 299.064C81.0114 298.267 80.6388 297.14 80.6388 295.684V286.116C80.6388 284.66 81.0114 283.533 81.7568 282.736C82.5021 281.939 83.5768 281.54 84.9808 281.54C86.3848 281.54 87.4594 281.939 88.2048 282.736C88.9501 283.533 89.3228 284.66 89.3228 286.116V295.684C89.3228 297.14 88.9501 298.267 88.2048 299.064C87.4594 299.861 86.3848 300.26 84.9808 300.26ZM84.9808 297.66C85.9688 297.66 86.4628 297.062 86.4628 295.866V285.934C86.4628 284.738 85.9688 284.14 84.9808 284.14C83.9928 284.14 83.4988 284.738 83.4988 285.934V295.866C83.4988 297.062 83.9928 297.66 84.9808 297.66ZM91.2569 281.8H94.8449L97.6269 292.694H97.6789V281.8H100.227V300H97.2889L93.8569 286.714H93.8049V300H91.2569V281.8ZM102.353 281.8H105.941L108.723 292.694H108.775V281.8H111.323V300H108.385L104.953 286.714H104.901V300H102.353V281.8ZM113.448 281.8H121.248V284.4H116.308V289.21H120.234V291.81H116.308V297.4H121.248V300H113.448V281.8ZM126.924 300.26C125.554 300.26 124.506 299.87 123.778 299.09C123.067 298.31 122.712 297.209 122.712 295.788V286.012C122.712 284.591 123.067 283.49 123.778 282.71C124.506 281.93 125.554 281.54 126.924 281.54C128.293 281.54 129.333 281.93 130.044 282.71C130.772 283.49 131.136 284.591 131.136 286.012V287.936H128.432V285.83C128.432 284.703 127.955 284.14 127.002 284.14C126.048 284.14 125.572 284.703 125.572 285.83V295.996C125.572 297.105 126.048 297.66 127.002 297.66C127.955 297.66 128.432 297.105 128.432 295.996V293.214H131.136V295.788C131.136 297.209 130.772 298.31 130.044 299.09C129.333 299.87 128.293 300.26 126.924 300.26ZM135.083 284.4H132.093V281.8H140.933V284.4H137.943V300H135.083V284.4Z" fill="white"/>
<rect x="0.5" y="0.5" width="397" height="495" rx="4.5" stroke="#7B61FF" stroke-dasharray="10 5"/>
<defs>
<filter id="filter0_d_6:471" x="16" y="20" width="180" height="68" filterUnits="userSpaceOnUse" color-interpolation-filters="sRGB">
<feFlood flood-opacity="0" result="BackgroundImageFix"/>
<feColorMatrix in="SourceAlpha" type="matrix" values="0 0 0 0 0 0 0 0 0 0 0 0 0 0 0 0 0 0 127 0" result="hardAlpha"/>
<feOffset dy="4"/>
<feGaussianBlur stdDeviation="2"/>
<feComposite in2="hardAlpha" operator="out"/>
<feColorMatrix type="matrix" values="0 0 0 0 0 0 0 0 0 0 0 0 0 0 0 0 0 0 0.25 0"/>
<feBlend mode="normal" in2="BackgroundImageFix" result="effect1_dropShadow_6:471"/>
<feBlend mode="normal" in="SourceGraphic" in2="effect1_dropShadow_6:471" result="shape"/>
</filter>
<filter id="filter1_d_6:471" x="16" y="100" width="180" height="68" filterUnits="userSpaceOnUse" color-interpolation-filters="sRGB">
<feFlood flood-opacity="0" result="BackgroundImageFix"/>
<feColorMatrix in="SourceAlpha" type="matrix" values="0 0 0 0 0 0 0 0 0 0 0 0 0 0 0 0 0 0 127 0" result="hardAlpha"/>
<feOffset dy="4"/>
<feGaussianBlur stdDeviation="2"/>
<feComposite in2="hardAlpha" operator="out"/>
<feColorMatrix type="matrix" values="0 0 0 0 0 0 0 0 0 0 0 0 0 0 0 0 0 0 0.25 0"/>
<feBlend mode="normal" in2="BackgroundImageFix" result="effect1_dropShadow_6:471"/>
<feBlend mode="normal" in="SourceGraphic" in2="effect1_dropShadow_6:471" result="shape"/>
</filter>
<filter id="filter2_d_6:471" x="16" y="180" width="180" height="68" filterUnits="userSpaceOnUse" color-interpolation-filters="sRGB">
<feFlood flood-opacity="0" result="BackgroundImageFix"/>
<feColorMatrix in="SourceAlpha" type="matrix" values="0 0 0 0 0 0 0 0 0 0 0 0 0 0 0 0 0 0 127 0" result="hardAlpha"/>
<feOffset dy="4"/>
<feGaussianBlur stdDeviation="2"/>
<feComposite in2="hardAlpha" operator="out"/>
<feColorMatrix type="matrix" values="0 0 0 0 0 0 0 0 0 0 0 0 0 0 0 0 0 0 0.25 0"/>
<feBlend mode="normal" in2="BackgroundImageFix" result="effect1_dropShadow_6:471"/>
<feBlend mode="normal" in="SourceGraphic" in2="effect1_dropShadow_6:471" result="shape"/>
</filter>
<filter id="filter3_d_6:471" x="16" y="260" width="180" height="68" filterUnits="userSpaceOnUse" color-interpolation-filters="sRGB">
<feFlood flood-opacity="0" result="BackgroundImageFix"/>
<feColorMatrix in="SourceAlpha" type="matrix" values="0 0 0 0 0 0 0 0 0 0 0 0 0 0 0 0 0 0 127 0" result="hardAlpha"/>
<feOffset dy="4"/>
<feGaussianBlur stdDeviation="2"/>
<feComposite in2="hardAlpha" operator="out"/>
<feColorMatrix type="matrix" values="0 0 0 0 0 0 0 0 0 0 0 0 0 0 0 0 0 0 0.25 0"/>
<feBlend mode="normal" in2="BackgroundImageFix" result="effect1_dropShadow_6:471"/>
<feBlend mode="normal" in="SourceGraphic" in2="effect1_dropShadow_6:471" result="shape"/>
</filter>
<linearGradient id="paint0_linear_6:471" x1="23.8154" y1="23" x2="74.3561" y2="77.6297" gradientUnits="userSpaceOnUse">
<stop stop-color="#45197E"/>
<stop offset="1" stop-color="#9469CA" stop-opacity="0"/>
</linearGradient>
<linearGradient id="paint1_linear_6:471" x1="23.8154" y1="103" x2="74.3561" y2="157.63" gradientUnits="userSpaceOnUse">
<stop stop-color="#2C7CA9"/>
<stop offset="1" stop-color="#3AAFEF"/>
</linearGradient>
<linearGradient id="paint2_linear_6:471" x1="23.8154" y1="183" x2="74.3561" y2="237.63" gradientUnits="userSpaceOnUse">
<stop stop-color="#D27927"/>
<stop offset="1" stop-color="#C2771E" stop-opacity="0"/>
</linearGradient>
<linearGradient id="paint3_linear_6:471" x1="23.8154" y1="263" x2="74.3561" y2="317.63" gradientUnits="userSpaceOnUse">
<stop stop-color="#337E19"/>
<stop offset="1" stop-color="#0F892A" stop-opacity="0"/>
</linearGradient>
</defs>
</svg>
